<?xml version="1.0" encoding="UTF-8"?>
<!DOCTYPE svg PUBLIC "-//W3C//DTD SVG 1.1//EN" "http://www.w3.org/Graphics/SVG/1.1/DTD/svg11.dtd">
<svg xmlns="http://www.w3.org/2000/svg" version="1.1" width="430px" height="500px" style="shape-rendering:geometricPrecision; text-rendering:geometricPrecision; image-rendering:optimizeQuality; fill-rule:evenodd; clip-rule:evenodd" xmlns:xlink="http://www.w3.org/1999/xlink">
<g><path style="opacity:0.879" fill="#c6ced9" d="M 137.5,22.5 C 146.173,22.3336 154.84,22.5002 163.5,23C 164.126,23.7504 164.626,24.5838 165,25.5C 165.5,31.8246 165.666,38.1579 165.5,44.5C 155.5,44.5 145.5,44.5 135.5,44.5C 134.989,36.9869 135.656,29.6535 137.5,22.5 Z"/></g>
<g><path style="opacity:0.004" fill="#000000" d="M 63.5,44.5 C 86.9964,43.3369 110.663,43.1702 134.5,44C 110.836,44.5 87.169,44.6666 63.5,44.5 Z"/></g>
<g><path style="opacity:0.981" fill="#caa472" d="M 56.5,46.5 C 118.168,46.3333 179.834,46.5 241.5,47C 252.986,56.1544 264.152,65.6544 275,75.5C 277,79.5 277,83.5 275,87.5C 263.886,96.6467 253.052,106.147 242.5,116C 181.166,116.743 119.833,117.076 58.5,117C 55.8241,115.16 53.9908,112.66 53,109.5C 52.3333,90.5 52.3333,71.5 53,52.5C 53.926,50.3083 55.0927,48.3083 56.5,46.5 Z"/></g>
<g><path style="opacity:0.817" fill="#35abed" d="M 361.5,91.5 C 373.845,90.0133 379.345,95.3466 378,107.5C 376.954,109.09 375.787,110.59 374.5,112C 368.894,114.152 363.228,116.152 357.5,118C 354.269,120.727 351.603,123.894 349.5,127.5C 347.579,128.641 345.579,128.808 343.5,128C 341.855,116.595 344.521,106.262 351.5,97C 354.767,94.8703 358.1,93.037 361.5,91.5 Z"/></g>
<g><path style="opacity:0.907" fill="#c6ced9" d="M 135.5,118.5 C 145.5,118.5 155.5,118.5 165.5,118.5C 165.5,124.5 165.5,130.5 165.5,136.5C 155.5,136.5 145.5,136.5 135.5,136.5C 135.5,130.5 135.5,124.5 135.5,118.5 Z"/></g>
<g><path style="opacity:0.8" fill="#35abed" d="M 371.5,122.5 C 377.965,123.481 382.798,126.815 386,132.5C 387.498,140.979 383.998,145.145 375.5,145C 371.032,142.597 366.699,139.93 362.5,137C 358.179,136.501 353.846,136.334 349.5,136.5C 349.081,133.675 350.081,131.509 352.5,130C 358.599,126.585 364.932,124.085 371.5,122.5 Z"/></g>
<g><path style="opacity:0.907" fill="#000000" d="M 318.5,136.5 C 331.417,134.805 342.417,138.472 351.5,147.5C 344.395,148.807 338.228,152.14 333,157.5C 327.008,168.258 328.842,177.424 338.5,185C 344.797,187.152 350.797,189.818 356.5,193C 347.356,206.234 334.69,211.9 318.5,210C 302.875,207.042 293.042,197.875 289,182.5C 285.567,158.315 295.4,142.981 318.5,136.5 Z"/></g>
<g><path style="opacity:0.984" fill="#caa472" d="M 58.5,138.5 C 120.168,138.333 181.834,138.5 243.5,139C 245.378,140.543 246.878,142.376 248,144.5C 248.964,164.898 248.631,185.231 247,205.5C 246.167,206.333 245.333,207.167 244.5,208C 182.833,208.667 121.167,208.667 59.5,208C 47.6829,199.33 36.5162,189.83 26,179.5C 23.8526,174.673 24.1859,170.006 27,165.5C 37.4784,156.364 47.9784,147.364 58.5,138.5 Z"/></g>
<g><path style="opacity:0.94" fill="#000000" d="M 345.5,152.5 C 349.247,152.392 352.914,152.892 356.5,154C 368.702,158.287 380.702,162.954 392.5,168C 408.164,179.826 411.664,194.659 403,212.5C 394.461,221.707 385.294,230.207 375.5,238C 370.204,241.231 364.704,244.065 359,246.5C 358.333,274.5 358.333,302.5 359,330.5C 364.333,373.167 369.667,415.834 375,458.5C 378.636,477.852 370.803,486.686 351.5,485C 346.792,483.622 343.292,480.788 341,476.5C 335.095,435.595 329.762,394.595 325,353.5C 320.156,394.25 314.823,434.917 309,475.5C 303.559,484.319 295.726,487.486 285.5,485C 277.167,482.163 272.834,476.33 272.5,467.5C 279.163,418.856 285.497,370.19 291.5,321.5C 287.56,321.242 283.893,320.076 280.5,318C 267.705,307.54 255.205,296.707 243,285.5C 232.935,270.134 234.768,256.301 248.5,244C 256.778,238.722 264.778,233.055 272.5,227C 282.887,220.426 294.22,217.093 306.5,217C 320.167,216.667 333.833,216.333 347.5,216C 357.462,210.879 366.128,204.046 373.5,195.5C 362.804,191.434 352.137,187.267 341.5,183C 333.547,177.685 331.381,170.518 335,161.5C 337.489,157.168 340.989,154.168 345.5,152.5 Z M 289.5,254.5 C 290.658,264.325 290.825,274.325 290,284.5C 283.991,279.323 278.158,273.989 272.5,268.5C 278.186,263.81 283.853,259.143 289.5,254.5 Z"/></g>
<g><path style="opacity:0.934" fill="#c6ced9" d="M 135.5,210.5 C 145.167,210.5 154.833,210.5 164.5,210.5C 164.667,286.167 164.5,361.834 164,437.5C 163.25,438.126 162.416,438.626 161.5,439C 153.833,439.667 146.167,439.667 138.5,439C 137.333,438.5 136.5,437.667 136,436.5C 135.5,361.167 135.333,285.834 135.5,210.5 Z"/></g>
</svg>
